<svg id="Layer_1" data-name="Layer 1" xmlns="http://www.w3.org/2000/svg" viewBox="0 0 77.27 77.27"><rect width="77.27" height="77.27" rx="17.14" fill="#fff"/><path d="M22.85,32.41c-3.43,3-2.43,6.75.62,8.49a9,9,0,0,1-3.33,5,3.15,3.15,0,0,1-2.47.22,5.9,5.9,0,0,0-4.75,0,2.31,2.31,0,0,1-2.78-.44c-2.92-3-4.39-6.55-3.72-10.78a5.11,5.11,0,0,1,7.31-4,3.63,3.63,0,0,0,3.09-.2A4.85,4.85,0,0,1,22.85,32.41Z"/><path d="M32.33,46.24H29.4V26.91a76.89,76.89,0,0,1,9,.07c3.06.37,4.94,3.31,4.75,6.53a6.11,6.11,0,0,1-5.72,6,39.44,39.44,0,0,1-4.07.06c-.79,0-1.05.27-1,1C32.36,42.47,32.33,44.3,32.33,46.24Zm0-17c0,2.48,0,4.83,0,7.18,0,.23.38.65.59.65A23.29,23.29,0,0,0,36.79,37c2.26-.32,3.38-1.8,3.28-4.1a3.57,3.57,0,0,0-3.57-3.63C35.19,29.17,33.87,29.25,32.34,29.25Z"/><path d="M53.38,46.23V44.08a5.76,5.76,0,0,1-5.65,2.29A4.11,4.11,0,0,1,44,42.49c-.12-2,1-3.5,3.36-4a39.83,39.83,0,0,1,4.39-.5l1.39-.12c.31-1.8-.09-2.84-1.24-3.32a3.43,3.43,0,0,0-4.18,1c-.8,1.31-1.92.42-3,.71a3.82,3.82,0,0,1,2.65-3.64,11.89,11.89,0,0,1,4.55-.51c2.87.29,4.25,2.06,4.26,5q0,3.84,0,7.67v1.47Zm-.23-6.43c-1.67.21-3.28.34-4.87.63a1.65,1.65,0,0,0-1.38,1.73A1.86,1.86,0,0,0,48.32,44C51.11,45,53.59,43,53.15,39.8Z"/><path d="M57.67,32.26a1.51,1.51,0,0,1,.25-.1c2.73-.21,2.73-.21,3.53,2.35.91,3,1.82,5.91,2.86,9.25.28-.72.45-1.09.57-1.48.9-2.9,1.85-5.78,2.65-8.71.33-1.18.87-1.67,2.08-1.47a9.75,9.75,0,0,0,1.45,0c-.71,2-1.35,3.85-2,5.68q-1.69,4.73-3.4,9.46A13.89,13.89,0,0,1,65,48.78C63.76,51.16,61.83,52,59,51.39V49.33c1.72.14,3-.39,3.39-2.15a3.94,3.94,0,0,0-.17-2C60.82,41,59.32,37,57.84,32.86,57.78,32.68,57.73,32.49,57.67,32.26Z"/><path d="M19,25.33c.17,2.6-1.78,4.77-4,4.59A4.29,4.29,0,0,1,19,25.33Z"/></svg>