<svg id="Layer_1" data-name="Layer 1" xmlns="http://www.w3.org/2000/svg" viewBox="0 0 77.27 77.27"><rect width="77.27" height="77.27" rx="17.14" fill="#fff"/><path d="M35.21,47.7V34.58c0-1.15,0-2.31,0-3.47,0-.61.13-1,.86-1,1.87,0,3.75-.06,5.63.05A5.16,5.16,0,0,1,46.4,35a5,5,0,0,1-4.19,5.43,21.21,21.21,0,0,1-3.82.17c-.93,0-1.29.26-1.26,1.21,0,1.56,0,3.12,0,4.68S37,48.08,35.21,47.7Zm2-9.17a6.22,6.22,0,0,0,.66.09c1.08,0,2.16,0,3.24,0A3.21,3.21,0,0,0,44.4,35.5,3.28,3.28,0,0,0,41.3,32a24.87,24.87,0,0,0-3.23,0c-.29,0-.8.36-.81.57C37.2,34.56,37.22,36.51,37.22,38.53Z" fill="#505050"/><path d="M55.05,40.58a2.48,2.48,0,0,0-1.5-2.93c-1.79-.9-3.33-.35-4.68,1.13l-1.54-1.06a5.61,5.61,0,0,1,6.12-2.08A4.33,4.33,0,0,1,57,39.87c.09,2.31,0,4.64,0,7,0,.62,0,1.08-.87,1.09s-1.11-.26-1-1a2.66,2.66,0,0,0-.13-.59c-.45.41-.81.76-1.19,1.07a4.22,4.22,0,0,1-4.73.5A3.8,3.8,0,0,1,46.71,44a4,4,0,0,1,4.11-3.74A34.71,34.71,0,0,1,55.05,40.58Zm-3.65,6a4,4,0,0,0,3.66-2.78c.2-.76.06-1.46-.78-1.57a11.61,11.61,0,0,0-3.62-.11,2.16,2.16,0,0,0-1.86,2.61A2.48,2.48,0,0,0,51.4,46.54Z" fill="#505050"/><path d="M60.06,53.08c.77-1.71,1.43-3.28,2.18-4.82a2.46,2.46,0,0,0,0-2.27c-1.46-3.31-2.87-6.66-4.3-10,1.7-.56,2-.44,2.57,1.08q1.27,3.16,2.56,6.33c.14.34.33.67.64,1.31l1.44-3.57c.53-1.33,1.15-2.64,1.57-4s1.17-1.67,2.55-1.25c-.14.44-.26.88-.44,1.3-2.15,5-4.34,10-6.45,15.09C61.93,53.43,61.13,53.21,60.06,53.08Z" fill="#505050"/><path d="M28.8,38.76a10,10,0,0,1-.18,1.9,10.33,10.33,0,0,1-3.72,6.2l-2.43-3a6.5,6.5,0,0,0,2.15-3.15H18.44v-4H28.6A10.82,10.82,0,0,1,28.8,38.76Z" fill="#0286ed"/><path d="M24.9,46.86A10.36,10.36,0,0,1,9.09,43.23L12.37,41a6.46,6.46,0,0,0,10.1,2.85Z" fill="#01a834"/><path d="M12,38.76a6.36,6.36,0,0,0,.39,2.2L9.09,43.23a10.39,10.39,0,0,1,.11-9.16l3.18,2.47A6.29,6.29,0,0,0,12,38.76Z" fill="#f9b500"/><path d="M25.33,31l-2.82,2.72a6.46,6.46,0,0,0-10.13,2.8L9.2,34.07A10.37,10.37,0,0,1,25.33,31Z" fill="#ec3215"/><path d="M25.33,31l-2.82,2.72a6.46,6.46,0,0,0-10.13,2.8,6.29,6.29,0,0,0-.4,2.22,6.36,6.36,0,0,0,.39,2.2,6.46,6.46,0,0,0,12.25-.3H18.44v-4H28.6" fill="none"/><line x1="22.47" y1="43.81" x2="22.13" y2="43.38" fill="none"/></svg>