<svg id="Layer_1" data-name="Layer 1" xmlns="http://www.w3.org/2000/svg" viewBox="0 0 163.13 37.57"><defs><style>.cls-1,.cls-2{fill:none;stroke:#fff;stroke-miterlimit:10;}.cls-1{stroke-linecap:round;}.cls-3{fill:#fff;}</style></defs><title>logo_right</title><line class="cls-1" x1="1.21" y1="37.23" x2="157.08" y2="36.84"/><rect class="cls-2" x="6.19" y="0.65" width="156.04" height="32.21" transform="translate(168.42 33.52) rotate(-180)"/><line class="cls-2" x1="162.23" y1="32.87" x2="156.53" y2="37.23"/><line class="cls-2" x1="6.36" y1="32.47" x2="0.65" y2="36.84"/><line class="cls-1" x1="0.65" y1="4.59" x2="0.65" y2="36.84"/><line class="cls-2" x1="5.99" y1="0.53" x2="0.5" y2="4.73"/><path class="cls-3" d="M92.45,21a2.41,2.41,0,0,1-.28,1.19,2.32,2.32,0,0,1-.77.85,3.54,3.54,0,0,1-1.2.51,6.73,6.73,0,0,1-1.54.17c-.26,0-.51,0-.76,0l-.73-.07-.65-.1L86,23.38V22.12a6.06,6.06,0,0,0,1.24.32,9,9,0,0,0,1.55.12,4.84,4.84,0,0,0,1.08-.1,2,2,0,0,0,.72-.29A1.14,1.14,0,0,0,91,21.7a1.47,1.47,0,0,0,.13-.64,1,1,0,0,0-.22-.66,1.84,1.84,0,0,0-.57-.49,4.59,4.59,0,0,0-.8-.4l-.92-.37c-.31-.13-.62-.26-.92-.41a4.12,4.12,0,0,1-.8-.53,2.41,2.41,0,0,1-.56-.71,2,2,0,0,1-.22-1,2.55,2.55,0,0,1,.2-1,2.41,2.41,0,0,1,.64-.84A3.26,3.26,0,0,1,88,14.1a5.14,5.14,0,0,1,1.62-.23l.52,0a5.51,5.51,0,0,1,.57.06l.57.09.53.11v1.17a7.87,7.87,0,0,0-1.13-.24A7,7,0,0,0,89.62,15a2.87,2.87,0,0,0-1.65.38,1.17,1.17,0,0,0-.53,1,1,1,0,0,0,.22.67,2.08,2.08,0,0,0,.56.49,5.09,5.09,0,0,0,.81.4l.92.37c.31.13.61.27.92.42a3.74,3.74,0,0,1,.8.54,2.5,2.5,0,0,1,.56.73A2.07,2.07,0,0,1,92.45,21Z"/><path class="cls-3" d="M101.6,19.77a4.91,4.91,0,0,1-.27,1.71,3.47,3.47,0,0,1-.76,1.22,3.08,3.08,0,0,1-1.14.72,4,4,0,0,1-1.43.25c-.24,0-.47,0-.7,0a6.2,6.2,0,0,1-.71-.12v3.07H95.32V16.23h1.13l.08,1.23a3.21,3.21,0,0,1,1.18-1.06,3,3,0,0,1,1.34-.31,2.23,2.23,0,0,1,1.11.27,2.26,2.26,0,0,1,.8.74,3.71,3.71,0,0,1,.48,1.16A6.36,6.36,0,0,1,101.6,19.77Zm-1.3.06a5.74,5.74,0,0,0-.09-1.06,2.62,2.62,0,0,0-.26-.83,1.56,1.56,0,0,0-.47-.54,1.18,1.18,0,0,0-.68-.19,1.66,1.66,0,0,0-.49.07,1.94,1.94,0,0,0-.52.26,3.34,3.34,0,0,0-.56.48,7.21,7.21,0,0,0-.64.73v3.57a4.54,4.54,0,0,0,.74.23,3.33,3.33,0,0,0,.76.08,2,2,0,0,0,1.62-.7A3.19,3.19,0,0,0,100.3,19.83Z"/><path class="cls-3" d="M109,23.58l0-1a4,4,0,0,1-1.22.86,3.39,3.39,0,0,1-1.3.26,3.15,3.15,0,0,1-1.08-.16,2.19,2.19,0,0,1-.73-.44,1.64,1.64,0,0,1-.43-.67,2.43,2.43,0,0,1-.13-.82,2.06,2.06,0,0,1,.82-1.74,4,4,0,0,1,2.44-.62h1.52v-.65a1.36,1.36,0,0,0-.42-1,1.8,1.8,0,0,0-1.27-.39,5,5,0,0,0-1.23.14,8.48,8.48,0,0,0-1.25.39V16.56l.54-.17a5.81,5.81,0,0,1,.63-.15l.69-.11c.23,0,.48,0,.72,0a4.38,4.38,0,0,1,1.2.15,2.5,2.5,0,0,1,.91.45,2,2,0,0,1,.56.75,2.52,2.52,0,0,1,.2,1.07v5.07Zm-.14-3.35h-1.62a2.83,2.83,0,0,0-.82.1,1.39,1.39,0,0,0-.56.27,1.1,1.1,0,0,0-.33.42,1.38,1.38,0,0,0-.11.55,1.41,1.41,0,0,0,.07.41.92.92,0,0,0,.21.34,1.12,1.12,0,0,0,.38.24,1.64,1.64,0,0,0,.58.09,2.39,2.39,0,0,0,1-.27,5.07,5.07,0,0,0,1.2-.84Z"/><path class="cls-3" d="M119,23.31a5.14,5.14,0,0,1-1,.28,6.38,6.38,0,0,1-1.08.09,3.62,3.62,0,0,1-2.68-.94A3.74,3.74,0,0,1,113.3,20a4.46,4.46,0,0,1,.27-1.59,3.41,3.41,0,0,1,.76-1.21,3.34,3.34,0,0,1,1.17-.78,3.89,3.89,0,0,1,1.5-.28,7.16,7.16,0,0,1,1.07.08,4.94,4.94,0,0,1,1,.27v1.21a4.37,4.37,0,0,0-1-.36,4.9,4.9,0,0,0-1-.11,2.39,2.39,0,0,0-.92.18,2.44,2.44,0,0,0-.77.54,2.64,2.64,0,0,0-.52.86,3.17,3.17,0,0,0-.19,1.14,2.77,2.77,0,0,0,.65,2,2.4,2.4,0,0,0,1.8.66,4.15,4.15,0,0,0,1-.12,3.55,3.55,0,0,0,.94-.35Z"/><path class="cls-3" d="M128.52,19.51c0,.19,0,.34,0,.46s0,.24,0,.34h-5.16A2.28,2.28,0,0,0,124,22a2.48,2.48,0,0,0,1.81.61c.22,0,.43,0,.65,0a6.18,6.18,0,0,0,.62-.07l.58-.09a5.16,5.16,0,0,0,.5-.13v1.05a8,8,0,0,1-1.17.24,10,10,0,0,1-1.36.09,4.46,4.46,0,0,1-1.63-.26,2.71,2.71,0,0,1-1.11-.74,3,3,0,0,1-.65-1.19,5.64,5.64,0,0,1-.21-1.6,4.71,4.71,0,0,1,.23-1.47,3.67,3.67,0,0,1,.65-1.22,3.17,3.17,0,0,1,1-.83,3.24,3.24,0,0,1,1.41-.31,3.64,3.64,0,0,1,1.37.24,2.74,2.74,0,0,1,1.61,1.77A4.44,4.44,0,0,1,128.52,19.51Zm-1.33-.18a2.63,2.63,0,0,0-.09-.9,2,2,0,0,0-.36-.7,1.83,1.83,0,0,0-.61-.45,2.08,2.08,0,0,0-.85-.17,1.93,1.93,0,0,0-.77.16,1.75,1.75,0,0,0-.59.46,2.17,2.17,0,0,0-.4.7,3.12,3.12,0,0,0-.19.9Z"/><path class="cls-3" d="M137.58,20.72a2.63,2.63,0,0,1-.27,1.21,2.44,2.44,0,0,1-.76.9,3.51,3.51,0,0,1-1.2.56,5.72,5.72,0,0,1-1.55.19h-2.51V14H134c2.13,0,3.2.77,3.2,2.32a2.34,2.34,0,0,1-.37,1.34,2.22,2.22,0,0,1-1.2.83,2.34,2.34,0,0,1,.73.25,1.93,1.93,0,0,1,.61.45,1.87,1.87,0,0,1,.42.66A2.31,2.31,0,0,1,137.58,20.72Zm-1.7-4.21a1.67,1.67,0,0,0-.09-.55,1,1,0,0,0-.31-.45,1.81,1.81,0,0,0-.59-.3,3.59,3.59,0,0,0-.95-.11h-1.35v3h1.31a2.9,2.9,0,0,0,.81-.1,1.69,1.69,0,0,0,.62-.29,1.28,1.28,0,0,0,.4-.49A1.55,1.55,0,0,0,135.88,16.51Zm.31,4.25a1.45,1.45,0,0,0-.15-.66,1.4,1.4,0,0,0-.45-.49,2.22,2.22,0,0,0-.71-.32,3.93,3.93,0,0,0-.95-.11h-1.34v3.3H134a2.72,2.72,0,0,0,1.67-.42A1.52,1.52,0,0,0,136.19,20.76Z"/><path class="cls-3" d="M145,23.58l0-1a4,4,0,0,1-1.22.86,3.39,3.39,0,0,1-1.3.26,3.15,3.15,0,0,1-1.08-.16,2.09,2.09,0,0,1-.73-.44,1.64,1.64,0,0,1-.43-.67,2.43,2.43,0,0,1-.13-.82,2.06,2.06,0,0,1,.82-1.74,4,4,0,0,1,2.43-.62h1.53v-.65a1.36,1.36,0,0,0-.42-1,1.8,1.8,0,0,0-1.27-.39,5,5,0,0,0-1.23.14,8.48,8.48,0,0,0-1.25.39V16.56l.54-.17a6.23,6.23,0,0,1,.62-.15l.69-.11c.24,0,.48,0,.73,0a4.48,4.48,0,0,1,1.2.15,2.38,2.38,0,0,1,.9.45,1.92,1.92,0,0,1,.57.75,2.69,2.69,0,0,1,.2,1.07v5.07Zm-.14-3.35h-1.62a2.83,2.83,0,0,0-.82.1,1.51,1.51,0,0,0-.57.27,1.18,1.18,0,0,0-.32.42,1.38,1.38,0,0,0-.11.55,1.14,1.14,0,0,0,.07.41.81.81,0,0,0,.21.34,1.12,1.12,0,0,0,.38.24,1.62,1.62,0,0,0,.57.09,2.39,2.39,0,0,0,1-.27,5.07,5.07,0,0,0,1.2-.84Z"/><path class="cls-3" d="M149.6,16.23h1.16l0,1.35a4.64,4.64,0,0,1,1.29-1.13,2.56,2.56,0,0,1,1.28-.36,2.1,2.1,0,0,1,1.73.74,3.34,3.34,0,0,1,.54,2.2h-1.29a2.39,2.39,0,0,0-.28-1.4,1,1,0,0,0-.89-.44,1.52,1.52,0,0,0-.51.09,1.83,1.83,0,0,0-.54.3,4.23,4.23,0,0,0-.58.51,9,9,0,0,0-.66.76v4.73H149.6Z"/></svg>