<svg id="Layer_1" data-name="Layer 1" xmlns="http://www.w3.org/2000/svg" viewBox="0 0 164.3 38.43"><defs><style>.cls-1,.cls-2{fill:none;stroke:#fff;stroke-miterlimit:10;}.cls-1{stroke-linecap:round;}.cls-3{fill:#fff;}</style></defs><title>right</title><line class="cls-1" x1="1.72" y1="37.66" x2="157.59" y2="37.26"/><rect class="cls-2" x="6.7" y="1.08" width="156.04" height="32.21" transform="translate(169.44 34.37) rotate(-180)"/><line class="cls-2" x1="162.74" y1="33.29" x2="157.04" y2="37.66"/><line class="cls-2" x1="6.87" y1="32.9" x2="1.16" y2="37.26"/><line class="cls-1" x1="1.16" y1="5.02" x2="1.16" y2="37.26"/><line class="cls-2" x1="6.5" y1="0.96" x2="1.01" y2="5.15"/><path class="cls-3" d="M93,21.41a2.45,2.45,0,0,1-.28,1.2,2.4,2.4,0,0,1-.77.85,3.45,3.45,0,0,1-1.2.51,6.73,6.73,0,0,1-1.54.17c-.26,0-.51,0-.76,0L87.68,24l-.65-.1-.56-.12V22.55a7.71,7.71,0,0,0,1.24.32,9,9,0,0,0,1.55.12,5.52,5.52,0,0,0,1.08-.1,2.17,2.17,0,0,0,.72-.3,1,1,0,0,0,.41-.47,1.42,1.42,0,0,0,.13-.63,1,1,0,0,0-.22-.67,2.27,2.27,0,0,0-.56-.49,6.12,6.12,0,0,0-.81-.39l-.92-.37c-.31-.13-.61-.27-.92-.42a4,4,0,0,1-.8-.53,2.41,2.41,0,0,1-.56-.71,2,2,0,0,1-.22-1,2.55,2.55,0,0,1,.2-1,2.36,2.36,0,0,1,.64-.85,3.43,3.43,0,0,1,1.11-.59,5.14,5.14,0,0,1,1.62-.23l.52,0,.57.06.57.1.53.11v1.17a9.58,9.58,0,0,0-1.13-.25,8.36,8.36,0,0,0-1.09-.08,2.88,2.88,0,0,0-1.65.37,1.19,1.19,0,0,0-.53,1,1,1,0,0,0,.22.66,2,2,0,0,0,.57.5,4.59,4.59,0,0,0,.8.4l.92.37c.31.13.62.26.92.42a4.12,4.12,0,0,1,.8.53,2.88,2.88,0,0,1,.57.73A2.19,2.19,0,0,1,93,21.41Z"/><path class="cls-3" d="M102.11,20.2a5,5,0,0,1-.27,1.71,3.57,3.57,0,0,1-.76,1.22,3.08,3.08,0,0,1-1.14.72,4.17,4.17,0,0,1-1.43.24c-.24,0-.47,0-.7,0a6.27,6.27,0,0,1-.71-.13V27H95.83V16.65H97L97,17.88a3.39,3.39,0,0,1,1.18-1.06,3,3,0,0,1,1.34-.3,2.33,2.33,0,0,1,1.11.26,2.38,2.38,0,0,1,.8.75,3.65,3.65,0,0,1,.48,1.15A6.51,6.51,0,0,1,102.11,20.2Zm-1.3.05a5.82,5.82,0,0,0-.09-1.06,2.7,2.7,0,0,0-.26-.83,1.51,1.51,0,0,0-.47-.53,1.19,1.19,0,0,0-.68-.2,1.67,1.67,0,0,0-.49.08,1.94,1.94,0,0,0-.52.26,3.25,3.25,0,0,0-.56.47,8.79,8.79,0,0,0-.64.74v3.56a4.57,4.57,0,0,0,.74.24,4.09,4.09,0,0,0,.76.08,2,2,0,0,0,1.62-.7A3.24,3.24,0,0,0,100.81,20.25Z"/><path class="cls-3" d="M109.55,24l0-1a4,4,0,0,1-1.22.85,3.19,3.19,0,0,1-1.3.27,3.42,3.42,0,0,1-1.08-.16,2.05,2.05,0,0,1-.73-.45,1.8,1.8,0,0,1-.43-.66,2.45,2.45,0,0,1-.13-.83,2,2,0,0,1,.82-1.73,4,4,0,0,1,2.44-.63h1.52V19A1.38,1.38,0,0,0,109,18a1.8,1.8,0,0,0-1.27-.39,5.59,5.59,0,0,0-1.23.14,10,10,0,0,0-1.25.4V17a5,5,0,0,1,.54-.17,5.81,5.81,0,0,1,.63-.15c.22-.05.45-.08.69-.11a5.79,5.79,0,0,1,.72,0,4.38,4.38,0,0,1,1.2.15,2.34,2.34,0,0,1,.91.44,2,2,0,0,1,.56.76,2.52,2.52,0,0,1,.2,1.07V24Zm-.14-3.34h-1.62a3.26,3.26,0,0,0-.82.09,1.72,1.72,0,0,0-.56.27,1.06,1.06,0,0,0-.33.43,1.35,1.35,0,0,0-.1.55,1.29,1.29,0,0,0,.06.4.93.93,0,0,0,.59.59,1.66,1.66,0,0,0,.58.08,2.36,2.36,0,0,0,1-.26,4.86,4.86,0,0,0,1.2-.85Z"/><path class="cls-3" d="M119.54,23.73a5.64,5.64,0,0,1-2.11.38,3.62,3.62,0,0,1-2.68-.95,3.74,3.74,0,0,1-.94-2.76,4.4,4.4,0,0,1,.27-1.58,3.55,3.55,0,0,1,.76-1.22,3.63,3.63,0,0,1,1.17-.78,4.08,4.08,0,0,1,1.5-.27,7.16,7.16,0,0,1,1.07.08,4.39,4.39,0,0,1,1,.26v1.22a3.75,3.75,0,0,0-1-.36,4.25,4.25,0,0,0-1-.12,2.4,2.4,0,0,0-.92.19,2.16,2.16,0,0,0-.77.54,2.59,2.59,0,0,0-.52.85,3.19,3.19,0,0,0-.19,1.15,2.74,2.74,0,0,0,.65,2,2.41,2.41,0,0,0,1.8.67,4.15,4.15,0,0,0,1-.12,4.72,4.72,0,0,0,1-.35Z"/><path class="cls-3" d="M129,19.94c0,.18,0,.33,0,.45s0,.24,0,.35h-5.16a2.28,2.28,0,0,0,.63,1.73,2.52,2.52,0,0,0,1.81.6c.22,0,.43,0,.65,0l.62-.07.58-.1.5-.12v1a8.08,8.08,0,0,1-1.17.23,8.62,8.62,0,0,1-1.36.1,4.68,4.68,0,0,1-1.63-.26,2.82,2.82,0,0,1-1.11-.74,3.16,3.16,0,0,1-.65-1.2,5.59,5.59,0,0,1-.21-1.6,4.76,4.76,0,0,1,.23-1.47,3.62,3.62,0,0,1,.65-1.21,3.14,3.14,0,0,1,1.05-.83,3.11,3.11,0,0,1,1.41-.31,3.64,3.64,0,0,1,1.37.24,2.72,2.72,0,0,1,1,.69,2.88,2.88,0,0,1,.61,1.07A4.55,4.55,0,0,1,129,19.94Zm-1.32-.18a2.86,2.86,0,0,0-.1-.9,2,2,0,0,0-.36-.7,1.73,1.73,0,0,0-.61-.46,2.08,2.08,0,0,0-.85-.16,1.77,1.77,0,0,0-.77.16,1.85,1.85,0,0,0-.59.45,2.22,2.22,0,0,0-.4.71,3.12,3.12,0,0,0-.19.9Z"/><path class="cls-3" d="M138.09,21.14a2.54,2.54,0,0,1-1,2.12,3.49,3.49,0,0,1-1.2.55,5.72,5.72,0,0,1-1.55.19H131.8V14.43h2.74c2.13,0,3.2.78,3.2,2.33a2.31,2.31,0,0,1-.37,1.33,2.14,2.14,0,0,1-1.2.83,2.63,2.63,0,0,1,.73.25,2.3,2.3,0,0,1,.61.45,2.06,2.06,0,0,1,.42.66A2.16,2.16,0,0,1,138.09,21.14Zm-1.7-4.2a1.73,1.73,0,0,0-.09-.56,1,1,0,0,0-.31-.44,1.49,1.49,0,0,0-.59-.3,3.59,3.59,0,0,0-1-.11h-1.34v3h1.3a3.32,3.32,0,0,0,.81-.1,1.69,1.69,0,0,0,.62-.29,1.31,1.31,0,0,0,.4-.5A1.51,1.51,0,0,0,136.39,16.94Zm.31,4.24a1.38,1.38,0,0,0-.15-.65,1.34,1.34,0,0,0-.45-.5,2.21,2.21,0,0,0-.71-.31,3.93,3.93,0,0,0-.95-.11h-1.33v3.3h1.37a2.72,2.72,0,0,0,1.67-.42A1.53,1.53,0,0,0,136.7,21.18Z"/><path class="cls-3" d="M145.54,24l0-1a4,4,0,0,1-1.22.85,3.22,3.22,0,0,1-1.3.27,3.42,3.42,0,0,1-1.08-.16,2,2,0,0,1-.73-.45,1.68,1.68,0,0,1-.43-.66,2.45,2.45,0,0,1-.13-.83,2,2,0,0,1,.82-1.73,4,4,0,0,1,2.44-.63h1.52V19A1.38,1.38,0,0,0,145,18a1.8,1.8,0,0,0-1.27-.39,5.59,5.59,0,0,0-1.23.14,10,10,0,0,0-1.25.4V17a5,5,0,0,1,.54-.17,5.81,5.81,0,0,1,.63-.15c.22-.05.44-.08.68-.11a6,6,0,0,1,.73,0,4.48,4.48,0,0,1,1.2.15,2.34,2.34,0,0,1,.91.44,2,2,0,0,1,.56.76,2.69,2.69,0,0,1,.2,1.07V24Zm-.14-3.34h-1.62a3.26,3.26,0,0,0-.82.09,1.72,1.72,0,0,0-.56.27,1.06,1.06,0,0,0-.33.43A1.35,1.35,0,0,0,142,22a1.29,1.29,0,0,0,.07.4.84.84,0,0,0,.21.35,1.12,1.12,0,0,0,.38.24,1.64,1.64,0,0,0,.57.08,2.36,2.36,0,0,0,1-.26,4.86,4.86,0,0,0,1.2-.85Z"/><path class="cls-3" d="M150.11,16.65h1.17l0,1.36a4.69,4.69,0,0,1,1.29-1.14,2.65,2.65,0,0,1,1.28-.35,2.1,2.1,0,0,1,1.73.74,3.33,3.33,0,0,1,.54,2.2h-1.29a2.33,2.33,0,0,0-.28-1.41,1,1,0,0,0-.89-.43,1.52,1.52,0,0,0-.51.09,2,2,0,0,0-.54.29,5.21,5.21,0,0,0-.58.52,7.67,7.67,0,0,0-.66.76V24h-1.29Z"/></svg>